# xmcd
#
# Track frame offsets:
#	150
#	17431
#	31529
#	49147
#	68442
#	87235
#	110066
#	126899
#	138373
#	151481
#	165158
#	179863
#
# Disc length: 2667 seconds
#
# Revision: 1
# Processed by: cddbd v1.5.1PL2 Copyright (c) Steve Scherf et al.
# Submitted via: audiograbber 1.83.01
#
DISCID=920a690c
DTITLE=James Last - 4x james last II
DYEAR=1900
DGENRE=
TTITLE0=Sucu - Die Carmen sagt - Minnie von Trinidat
TTITLE1=Brazilian Love Song
TTITLE2=Sweet
TTITLE3=The Touch
TTITLE4=Tampico
TTITLE5=Monnlight
TTITLE6=Wedding Song
TTITLE7=The Way of love
TTITLE8=Love Thema
TTITLE9=Heart of Gold
TTITLE10=Close To You
TTITLE11=Love Must be the Rason
EXTD=Schallplatte 2
EXTT0=
EXTT1=
EXTT2=
EXTT3=
EXTT4=
EXTT5=
EXTT6=
EXTT7=
EXTT8=
EXTT9=
EXTT10=
EXTT11=
PLAYORDER=
